# xmcd
#
# Track frame offsets:
# 150
# 18184
# 36002
# 53399
# 71494
# 86891
# 101026
# 118346
# 135009
# 148061
# 164462
# 178758
# 195691
# 210302
# 227437
#
# Disc length: 3185 seconds
#
#
# Revision: 0
# Processed by: cddbd v1.5.1PL2 Copyright (c) Steve Scherf et al.
# Submitted via: FreeRIP 2.945 
#
DISCID=c50c6f0f
DTITLE=PARADOXX Music - 1º CIRCUITO PAULISTA DE - RODEIO INDOOR
DYEAR=1997
DGENRE=Country
TTITLE0=Bryan Smith - Jack Of All Trade
TTITLE1=Carryl Mc Parker - Better Love Next Time
TTITLE2=The Bellamy Brothers - Redneck Girl
TTITLE3=Tim O'Brien - Señor (Tales Of Yankee Power)
TTITLE4=Rich McCready - Hangin On
TTITLE5=Joe Nichols - I Hate The Way I Love You
TTITLE6=Western Flyer - Back In America
TTITLE7=Gretchen Peters - Waiting For The Light To Turn Green
TTITLE8=Steve Haggard - One Used Wedding Ring
TTITLE9=Doug Wayne - Fire and Rain
TTITLE10=Don Cox - All Over Town
TTITLE11=Al Anderson - Listen To Your Heart
TTITLE12=Shelby Lynne - Slow Me Down
TTITLE13=Alison Krauss - Baby Now That I've Found
TTITLE14=Gene Fireball - On The Road Again
EXTD=
EXTT0=
EXTT1=
EXTT2=
EXTT3=
EXTT4=
EXTT5=
EXTT6=
EXTT7=
EXTT8=
EXTT9=
EXTT10=
EXTT11=
EXTT12=
EXTT13=
EXTT14=
PLAYORDER=
